####
#
# OBJ File Generated by Meshlab
#
####
# Object plane100.obj
#
# Vertices: 100
# Faces: 162
#
####
v -1.414106 0.000108 0.017452
v 0.000108 -1.414106 0.017452
v -0.000108 1.414106 -0.017452
v 1.414106 -0.000108 -0.017452
v -0.157219 1.256995 -0.013574
v -0.314329 1.099884 -0.009696
v -0.471440 0.942773 -0.005817
v -0.628551 0.785662 -0.001939
v -0.785662 0.628551 0.001939
v -0.942773 0.471440 0.005817
v -1.099884 0.314330 0.009696
v -1.256995 0.157219 0.013574
v -1.256971 -0.157027 0.017452
v -1.099836 -0.314162 0.017452
v -0.942701 -0.471297 0.017452
v -0.785567 -0.628432 0.017452
v -0.628432 -0.785567 0.017452
v -0.471297 -0.942701 0.017452
v -0.314162 -1.099836 0.017452
v -0.157027 -1.256971 0.017452
v 0.157219 -1.256995 0.013574
v 0.314329 -1.099884 0.009696
v 0.471440 -0.942773 0.005817
v 0.628551 -0.785662 0.001939
v 0.785662 -0.628551 -0.001939
v 0.942773 -0.471440 -0.005817
v 1.099884 -0.314330 -0.009696
v 1.256995 -0.157219 -0.013574
v 1.256971 0.157027 -0.017452
v 1.099836 0.314162 -0.017452
v 0.942701 0.471297 -0.017452
v 0.785567 0.628432 -0.017452
v 0.628432 0.785567 -0.017452
v 0.471297 0.942701 -0.017452
v 0.314162 1.099836 -0.017452
v 0.157027 1.256971 -0.017452
v -1.099860 0.000084 0.013574
v -0.942749 0.157195 0.009696
v -0.785638 0.314306 0.005817
v -0.628527 0.471416 0.001939
v -0.471416 0.628527 -0.001939
v -0.314306 0.785638 -0.005817
v -0.157195 0.942749 -0.009696
v -0.000084 1.099860 -0.013574
v -0.942725 -0.157051 0.013574
v -0.785614 0.000060 0.009696
v -0.628504 0.157171 0.005817
v -0.471393 0.314282 0.001939
v -0.314282 0.471393 -0.001939
v -0.157171 0.628503 -0.005817
v -0.000060 0.785614 -0.009696
v 0.157051 0.942725 -0.013574
v -0.785590 -0.314186 0.013574
v -0.628480 -0.157075 0.009696
v -0.471369 0.000036 0.005817
v -0.314258 0.157147 0.001939
v -0.157147 0.314258 -0.001939
v -0.000036 0.471369 -0.005817
v 0.157075 0.628480 -0.009696
v 0.314186 0.785590 -0.013574
v -0.628456 -0.471321 0.013574
v -0.471345 -0.314210 0.009696
v -0.314234 -0.157099 0.005817
v -0.157123 0.000012 0.001939
v -0.000012 0.157123 -0.001939
v 0.157099 0.314234 -0.005817
v 0.314210 0.471345 -0.009696
v 0.471321 0.628456 -0.013574
v -0.471321 -0.628456 0.013574
v -0.314210 -0.471345 0.009696
v -0.157099 -0.314234 0.005817
v 0.000012 -0.157123 0.001939
v 0.157123 -0.000012 -0.001939
v 0.314234 0.157099 -0.005817
v 0.471345 0.314210 -0.009696
v 0.628456 0.471321 -0.013574
v -0.314186 -0.785590 0.013574
v -0.157075 -0.628480 0.009696
v 0.000036 -0.471369 0.005817
v 0.157147 -0.314258 0.001939
v 0.314258 -0.157147 -0.001939
v 0.471369 -0.000036 -0.005817
v 0.628480 0.157075 -0.009696
v 0.785590 0.314186 -0.013574
v -0.157051 -0.942725 0.013574
v 0.000060 -0.785614 0.009696
v 0.157171 -0.628503 0.005817
v 0.314282 -0.471393 0.001939
v 0.471393 -0.314282 -0.001939
v 0.628504 -0.157171 -0.005817
v 0.785614 -0.000060 -0.009696
v 0.942725 0.157051 -0.013574
v 0.000084 -1.099860 0.013574
v 0.157195 -0.942749 0.009696
v 0.314306 -0.785638 0.005817
v 0.471416 -0.628527 0.001939
v 0.628527 -0.471416 -0.001939
v 0.785638 -0.314306 -0.005817
v 0.942749 -0.157195 -0.009696
v 1.099860 -0.000084 -0.013574
# 100 vertices, 0 vertices normals

f 100 28 4
f 100 4 29
f 5 44 36
f 5 36 3
f 44 52 35
f 44 35 36
f 52 60 34
f 52 34 35
f 60 68 33
f 60 33 34
f 68 76 32
f 68 32 33
f 76 84 31
f 76 31 32
f 84 92 30
f 84 30 31
f 92 100 29
f 92 29 30
f 1 13 37
f 1 37 12
f 12 37 38
f 12 38 11
f 11 38 39
f 11 39 10
f 10 39 40
f 10 40 9
f 9 40 41
f 9 41 8
f 8 41 42
f 8 42 7
f 7 42 43
f 7 43 6
f 6 43 44
f 6 44 5
f 13 14 45
f 13 45 37
f 37 45 46
f 37 46 38
f 38 46 47
f 38 47 39
f 39 47 48
f 39 48 40
f 40 48 49
f 40 49 41
f 41 49 50
f 41 50 42
f 42 50 51
f 42 51 43
f 43 51 52
f 43 52 44
f 14 15 53
f 14 53 45
f 45 53 54
f 45 54 46
f 46 54 55
f 46 55 47
f 47 55 56
f 47 56 48
f 48 56 57
f 48 57 49
f 49 57 58
f 49 58 50
f 50 58 59
f 50 59 51
f 51 59 60
f 51 60 52
f 15 16 61
f 15 61 53
f 53 61 62
f 53 62 54
f 54 62 63
f 54 63 55
f 55 63 64
f 55 64 56
f 56 64 65
f 56 65 57
f 57 65 66
f 57 66 58
f 58 66 67
f 58 67 59
f 59 67 68
f 59 68 60
f 16 17 69
f 16 69 61
f 61 69 70
f 61 70 62
f 62 70 71
f 62 71 63
f 63 71 72
f 63 72 64
f 64 72 73
f 64 73 65
f 65 73 74
f 65 74 66
f 66 74 75
f 66 75 67
f 67 75 76
f 67 76 68
f 17 18 77
f 17 77 69
f 69 77 78
f 69 78 70
f 70 78 79
f 70 79 71
f 71 79 80
f 71 80 72
f 72 80 81
f 72 81 73
f 73 81 82
f 73 82 74
f 74 82 83
f 74 83 75
f 75 83 84
f 75 84 76
f 18 19 85
f 18 85 77
f 77 85 86
f 77 86 78
f 78 86 87
f 78 87 79
f 79 87 88
f 79 88 80
f 80 88 89
f 80 89 81
f 81 89 90
f 81 90 82
f 82 90 91
f 82 91 83
f 83 91 92
f 83 92 84
f 19 20 93
f 19 93 85
f 85 93 94
f 85 94 86
f 86 94 95
f 86 95 87
f 87 95 96
f 87 96 88
f 88 96 97
f 88 97 89
f 89 97 98
f 89 98 90
f 90 98 99
f 90 99 91
f 91 99 100
f 91 100 92
f 20 2 21
f 20 21 93
f 93 21 22
f 93 22 94
f 94 22 23
f 94 23 95
f 95 23 24
f 95 24 96
f 96 24 25
f 96 25 97
f 97 25 26
f 97 26 98
f 98 26 27
f 98 27 99
f 99 27 28
f 99 28 100
# 162 faces, 0 coords texture

# End of File
